<?xml version="1.0" standalone="no"?>
<!DOCTYPE svg PUBLIC "-//W3C//DTD SVG 20010904//EN"
 "http://www.w3.org/TR/2001/REC-SVG-20010904/DTD/svg10.dtd">
<svg version="1.0" xmlns="http://www.w3.org/2000/svg"
 width="1008.000000pt" height="1010.000000pt" viewBox="0 0 1008.000000 1010.000000"
 preserveAspectRatio="xMidYMid meet">
<metadata>
Created by potrace 1.16, written by Peter Selinger 2001-2019
</metadata>
<g transform="translate(0.000000,1010.000000) scale(0.100000,-0.100000)"
fill="#000000" stroke="none">
<path d="M4715 10023 c-283 -18 -643 -75 -910 -143 -911 -234 -1695 -689
-2355 -1366 -1067 -1095 -1563 -2591 -1369 -4124 105 -831 428 -1631 936
-2318 277 -374 645 -744 1022 -1026 179 -134 251 -182 440 -296 957 -572 2073
-802 3201 -659 894 113 1761 483 2470 1053 316 254 640 590 878 908 577 775
910 1663 981 2623 14 180 14 550 0 730 -80 1081 -496 2081 -1204 2900 -222
256 -537 548 -809 749 -412 305 -893 557 -1366 715 -546 183 -1050 263 -1623
259 -133 -1 -264 -3 -292 -5z m715 -393 c1779 -159 3310 -1333 3927 -3010 206
-558 305 -1203 274 -1782 -50 -962 -352 -1801 -921 -2563 -986 -1320 -2621
-2013 -4260 -1804 -1008 128 -1944 587 -2664 1305 -648 647 -1070 1419 -1261
2305 -146 681 -134 1392 36 2074 192 771 590 1489 1142 2065 814 849 1864
1336 3060 1420 143 10 502 4 667 -10z"/>
<path d="M6351 8786 c2 -2 58 -34 124 -71 166 -95 435 -275 590 -395 154 -120
178 -141 168 -151 -18 -16 -615 -148 -808 -179 -38 -6 -79 -13 -91 -16 -16 -4
-33 13 -89 93 -106 148 -251 319 -351 410 -88 81 -206 174 -212 168 -2 -1 16
-34 39 -71 62 -101 153 -272 195 -366 77 -173 114 -262 114 -274 0 -13 -2 -13
-305 -49 -372 -43 -586 -57 -990 -62 -351 -5 -856 8 -908 23 -21 7 -23 -2 46
189 56 156 114 292 188 438 27 53 46 97 42 97 -12 0 -180 -172 -246 -252 -60
-71 -160 -218 -246 -360 -32 -52 -60 -88 -70 -88 -76 0 -558 66 -849 116
l-102 18 52 54 c139 142 399 357 606 502 73 51 131 94 128 97 -6 6 -164 -48
-312 -107 -263 -105 -502 -242 -799 -457 l-30 -22 -160 34 c-88 18 -200 42
-248 53 -110 24 -107 20 78 -102 72 -47 138 -91 149 -98 17 -13 7 -26 -141
-173 -315 -317 -534 -617 -724 -996 -156 -311 -286 -688 -344 -999 -171 -922
-36 -1825 391 -2625 401 -750 1044 -1349 1793 -1670 232 -99 503 -184 671
-209 42 -7 38 -4 -65 54 -664 374 -1208 863 -1585 1425 -365 544 -598 1157
-675 1775 -26 209 -38 536 -27 713 6 87 12 160 14 163 3 2 67 -22 144 -55 411
-173 923 -336 1325 -421 l157 -33 7 -96 c53 -770 177 -1356 414 -1960 22 -58
39 -106 37 -108 -14 -15 -599 83 -1071 178 -241 48 -440 87 -442 85 -4 -4 132
-98 247 -172 384 -245 902 -464 1365 -577 l172 -41 52 -84 c73 -114 186 -263
285 -374 86 -97 217 -221 224 -213 3 2 0 10 -6 17 -33 41 -287 586 -278 596 2
1 50 -5 107 -13 352 -54 859 -78 1174 -56 297 21 578 61 848 121 72 16 134 27
136 24 7 -7 -82 -275 -146 -439 -30 -77 -57 -147 -60 -155 -3 -8 20 12 51 45
137 145 282 344 395 542 l52 91 147 47 c387 124 838 341 1175 567 160 107 404
295 395 304 -2 1 -120 -31 -263 -72 -414 -119 -1199 -313 -1213 -299 -2 1 17
70 41 152 185 612 267 1174 267 1825 l0 217 43 11 c117 29 585 189 757 259
241 97 351 146 582 262 99 50 181 89 183 87 2 -2 10 -59 19 -128 133 -1043
-132 -2072 -758 -2945 -291 -406 -698 -803 -1130 -1100 -55 -38 -95 -70 -89
-72 12 -4 220 69 346 121 534 221 1060 635 1444 1136 376 492 644 1117 737
1723 39 252 50 392 50 657 1 256 -8 367 -50 629 -145 914 -621 1752 -1326
2339 -71 58 -128 108 -128 112 0 3 30 28 68 55 131 97 236 184 229 191 -1 2
-103 -26 -227 -62 -123 -35 -229 -64 -236 -64 -6 0 -70 36 -143 80 -238 145
-514 273 -752 349 -161 52 -389 106 -368 87z m1205 -908 c399 -409 738 -954
923 -1483 52 -148 138 -451 147 -514 l6 -47 -73 -16 c-41 -10 -173 -39 -295
-67 -297 -67 -1132 -231 -1178 -231 -8 0 -16 42 -24 124 -60 602 -231 1268
-456 1775 -26 58 -45 110 -42 117 2 6 17 15 33 18 128 32 601 248 808 369 33
19 62 36 65 36 3 1 42 -36 86 -81z m-5060 -149 c224 -105 523 -217 758 -284
50 -14 91 -27 93 -28 1 -2 -20 -68 -48 -148 -184 -524 -293 -1153 -312 -1791
-1 -53 -6 -100 -9 -103 -18 -18 -939 95 -1483 183 l-110 18 2 52 c5 113 90
481 165 712 111 343 321 762 531 1062 83 119 288 378 298 378 4 0 56 -23 115
-51z m3713 -336 c5 -21 26 -99 45 -173 115 -440 196 -969 261 -1707 7 -86 32
-75 -225 -102 -974 -105 -1860 -133 -2687 -85 l-113 7 0 161 c0 508 54 1140
135 1576 20 107 39 212 42 233 7 44 0 43 152 17 324 -54 579 -74 946 -74 464
0 884 49 1285 148 74 19 138 34 142 35 4 1 12 -16 17 -36z m337 -2520 c9 -60
-2 -720 -16 -948 -14 -234 -37 -484 -60 -650 -39 -283 -73 -470 -87 -481 -7
-6 -53 -17 -101 -23 -747 -99 -1206 -127 -1787 -110 -327 10 -663 33 -675 46
-9 10 -82 302 -114 458 -61 292 -123 691 -150 955 -31 298 -57 681 -47 691 3
4 49 1 101 -7 569 -80 1287 -95 1895 -39 305 29 723 90 945 139 36 8 70 14 77
15 7 1 15 -19 19 -46z"/>
</g>
</svg>
